<?xml version="1.0" encoding="UTF-8" standalone="no"?>
<svg
   width="128"
   height="128"
   viewBox="0 0 128 128"
   fill="none"
   version="1.1"
   id="svg6"
   sodipodi:docname="app.svg"
   xml:space="preserve"
   inkscape:version="1.3 (0e150ed6c4, 2023-07-21)"
   inkscape:export-filename="app.svg"
   inkscape:export-xdpi="96"
   inkscape:export-ydpi="96"
   xmlns:inkscape="http://www.inkscape.org/namespaces/inkscape"
   xmlns:sodipodi="http://sodipodi.sourceforge.net/DTD/sodipodi-0.dtd"
   xmlns="http://www.w3.org/2000/svg"
   xmlns:svg="http://www.w3.org/2000/svg"><sodipodi:namedview
     id="namedview6"
     pagecolor="#ffffff"
     bordercolor="#000000"
     borderopacity="0.25"
     inkscape:showpageshadow="2"
     inkscape:pageopacity="0.0"
     inkscape:pagecheckerboard="0"
     inkscape:deskcolor="#d1d1d1"
     inkscape:zoom="3.2399854"
     inkscape:cx="32.716197"
     inkscape:cy="95.833766"
     inkscape:window-width="1493"
     inkscape:window-height="1289"
     inkscape:window-x="26"
     inkscape:window-y="23"
     inkscape:window-maximized="0"
     inkscape:current-layer="svg6" /><g
     filter="url(#filter0_i_1112_2)"
     id="g2"><rect
       x="12"
       y="12"
       width="104"
       height="104"
       rx="24"
       fill="#ee5b42"
       id="rect1" /><rect
       x="12"
       y="12"
       width="104"
       height="104"
       rx="24"
       fill="url(#paint0_linear_1112_2)"
       fill-opacity="0.8"
       id="rect2"
       style="fill:url(#paint0_linear_1112_2)" /></g><defs
     id="defs6"><filter
       id="filter0_i_1112_2"
       x="12"
       y="12"
       width="104"
       height="104"
       filterUnits="userSpaceOnUse"
       color-interpolation-filters="sRGB"><feFlood
         flood-opacity="0"
         result="BackgroundImageFix"
         id="feFlood3" /><feBlend
         mode="normal"
         in="SourceGraphic"
         in2="BackgroundImageFix"
         result="shape"
         id="feBlend3" /><feColorMatrix
         in="SourceAlpha"
         type="matrix"
         values="0 0 0 0 0 0 0 0 0 0 0 0 0 0 0 0 0 0 127 0"
         result="hardAlpha"
         id="feColorMatrix3" /><feOffset
         dy="-4"
         id="feOffset3" /><feComposite
         in2="hardAlpha"
         operator="arithmetic"
         k2="-1"
         k3="1"
         id="feComposite3"
         k1="0"
         k4="0" /><feColorMatrix
         type="matrix"
         values="0 0 0 0 0.0666667 0 0 0 0 0.0666667 0 0 0 0 0.0666667 0 0 0 0.2 0"
         id="feColorMatrix4" /><feBlend
         mode="normal"
         in2="shape"
         result="effect1_innerShadow_1112_2"
         id="feBlend4" /></filter><linearGradient
       id="paint0_linear_1112_2"
       x1="64"
       y1="12"
       x2="64"
       y2="116"
       gradientUnits="userSpaceOnUse"><stop
         stop-color="#F0F0F2"
         stop-opacity="0"
         id="stop4" /><stop
         offset="1"
         stop-color="#2D2D2D"
         stop-opacity="0.2"
         id="stop5" /><stop
         offset="1"
         stop-color="#F0F0F2"
         stop-opacity="0.2"
         id="stop6" /></linearGradient></defs><g
     style="fill:none"
     id="g6"
     transform="matrix(0.53978323,0,0,0.53725031,-0.53413185,-1.4222524)"><g
       clip-path="url(#clip0_4311_7647)"
       id="g3"><path
         d="M 142.933,48.1778 C 149.867,48 156.8,49.4222 163.2,52.2667 158.4,49.2445 153.245,46.7556 147.911,44.8 121.245,35.0222 91.2001,40 69.3334,57.9556 c -0.7111,0.5333 -2.4889,2.1333 -3.2,2.8444 -0.7111,0.7111 -2.3111,2.1333 -3.0222,2.8445 -0.8889,0.8888 -1.9556,2.1333 -2.8444,3.0222 -0.7112,0.8889 -2.1334,2.4889 -2.6667,3.2 -0.7111,1.0666 -1.6,2.1333 -2.1333,3.0222 -0.5334,0.7111 -1.7778,2.6667 -2.4889,3.5556 -0.1778,0.3555 -0.8889,1.4222 -1.0667,1.7777 -0.1778,0.1778 -0.7111,1.2445 -0.8889,1.4223 -0.3555,0.5333 -1.6,2.8444 -1.9555,3.3777 -0.3556,0.8889 -1.4223,2.8445 -1.7778,3.7334 -0.3556,0.8889 -1.0667,2.3111 -1.4222,3.2 -0.1778,0.3555 -1.0667,2.8444 -1.2445,3.2 -0.3555,0.7111 -0.7111,1.9555 -0.8889,2.6666 -0.5333,1.4222 -0.8889,3.2 -1.4222,4.7998 -0.1778,0.889 -0.7111,3.2 -0.8889,4.089 l -0.1778,0.711 c -3.5555,18.667 0,38.4 9.6,54.934 1.0667,1.6 2.3111,3.733 3.3778,5.333 0.5333,0.711 1.2445,1.778 1.7778,2.311 l 1.7778,2.311 c 0.5333,0.711 2.1333,2.489 2.6666,3.2 0.8889,0.889 1.9556,2.133 2.8445,3.022 0.5333,0.534 1.4222,1.423 1.9555,1.956 l 1.0667,0.889 0.1778,0.178 0.3555,0.177 0.5334,0.356 c 0.7111,0.533 1.6,1.067 2.3111,1.6 l 0.5333,0.355 c 0.1778,0.178 0.3556,0.178 0.5333,0.356 0.7112,0.356 1.7778,1.067 2.3112,1.422 0.3555,0.178 0.8888,0.534 1.2444,0.711 0.3556,0.178 1.4222,0.711 1.9556,0.889 0.5333,0.356 1.4222,0.534 1.9555,0.889 1.4222,0.533 2.8445,1.067 4.2667,1.6 0.7111,0.178 1.6,0.533 2.3111,0.711 0.5333,0.178 1.6,0.356 2.1333,0.534 0.5334,0.177 1.4223,0.177 2.1334,0.355 2.4889,0.356 4.8,0.533 7.2889,0.533 5.8663,-0.177 11.7333,-1.422 17.0663,-3.733 11.378,-4.8 20.8,-14.4 25.245,-26.133 l 0.533,-1.245 c 0.178,-0.355 0.533,-1.6 0.711,-1.955 0.356,-1.067 0.711,-2.311 0.889,-3.378 0,-0.356 0.178,-1.067 0.356,-1.422 0.355,-1.956 0.711,-4.267 0.711,-6.222 0,-0.534 0,-1.6 0,-2.134 0,0 0,-0.178 0,-0.355 -1.6,0 -3.022,-0.178 -4.622,-0.356 C 112.889,140.622 94.4001,119.467 95.1112,94.7556 95.6445,68.6222 117.333,48 142.933,48.1778 Z M 82.1334,172.622 c -3.0222,-1.778 -6.0444,-3.911 -8.5333,-6.4 C 62.5779,155.556 55.1112,141.333 52.6223,126.044 48.0001,99.0222 59.2001,71.2889 81.4223,55.1111 93.8668,46.0445 109.511,41.0667 124.978,41.6 106.667,42.4889 88.7112,50.1333 75.7334,63.2889 59.5556,79.4667 51.9112,102.933 55.6445,125.511 c 2.4889,15.645 10.3111,30.578 22.0445,41.245 12.0889,10.666 30.222,13.155 44.8,6.222 -12.267,7.111 -28.0889,6.755 -40.3556,-0.356 z m 2.3111,-19.378 C 55.8223,124.622 60.9779,76.0889 95.1112,54.0445 99.5557,51.2 104.356,48.8889 109.511,47.1111 c 8,-2.6666 16.534,-3.7333 24.889,-3.0222 -16.711,-0.1778 -33.244,6.2222 -45.1555,17.6 -25.0666,23.4667 -26.8444,62.9331 -3.9111,88.7111 0.5334,0.533 1.4222,1.6 2.1334,2.311 10.8444,11.2 28.8002,14.4 42.4892,6.578 -14.223,9.6 -33.9559,6.222 -45.5115,-6.045 z m 7.8223,-21.155 1.4222,2.133 1.6,2.134 1.7778,2.133 c 1.7777,1.955 3.5552,3.911 5.6892,5.511 8.355,6.578 20.089,9.244 30.4,5.689 -6.756,3.022 -14.578,3.2 -21.689,1.067 -6.4,-1.956 -11.9113,-5.689 -16.178,-10.489 C 86.9334,131.378 81.7779,119.822 80.7112,107.733 77.1556,72.1778 107.911,41.9556 143.467,47.2889 135.289,46.9333 127.111,48 119.645,50.8445 c -1.956,0.7111 -4.267,1.7777 -6.045,2.8444 -0.355,0.1778 -1.422,0.7111 -1.778,0.8889 -0.355,0.1778 -1.422,0.8889 -1.777,1.0667 -0.712,0.3555 -1.6,1.0666 -2.312,1.4222 -0.711,0.5333 -1.6,1.0666 -2.133,1.6 C 82.489,75.5556 76.6223,107.911 92.2668,132.089 Z"
         fill="#000000"
         id="path1" /><path
         d="m 169.778,181.867 c 0.711,-0.534 2.489,-2.134 3.2,-2.845 0.711,-0.711 2.311,-2.133 3.022,-2.844 0.889,-0.889 1.956,-2.133 2.845,-3.022 0.711,-0.889 2.133,-2.489 2.666,-3.2 0.711,-0.889 1.6,-1.956 2.134,-2.845 0.533,-0.711 1.777,-2.667 2.488,-3.555 0.178,-0.356 0.889,-1.423 1.067,-1.778 0.178,-0.178 0.711,-1.245 0.889,-1.422 0.356,-0.534 1.6,-2.845 1.956,-3.378 0.355,-0.889 1.422,-2.845 1.777,-3.734 0.356,-0.888 1.067,-2.311 1.423,-3.199 0.177,-0.356 1.066,-2.845 1.244,-3.201 0.356,-0.711 0.711,-1.955 0.889,-2.666 0.533,-1.422 0.889,-3.2 1.422,-4.8 0.178,-0.889 0.711,-3.2 0.889,-4.089 l 0.178,-0.711 c 3.555,-18.667 0,-38.4002 -9.6,-54.9335 -1.067,-1.6 -2.311,-3.7333 -3.378,-5.3333 -0.356,-0.7111 -1.244,-1.6 -1.6,-2.3111 l -1.778,-2.3112 c -0.533,-0.7111 -2.133,-2.4888 -2.666,-3.2 -0.889,-0.8888 -1.956,-2.1333 -2.845,-3.0222 -0.533,-0.5333 -1.422,-1.4222 -1.955,-1.9555 l -1.067,-0.8889 -0.178,-0.1778 -0.355,-0.1778 -0.889,-0.5333 c -0.711,-0.5333 -1.6,-1.0667 -2.311,-1.6 l -0.534,-0.3556 c -0.178,-0.1777 -0.355,-0.1777 -0.533,-0.3555 -0.711,-0.3556 -1.778,-1.0667 -2.311,-1.4222 -0.356,-0.1778 -0.889,-0.5334 -1.245,-0.7112 -0.355,-0.1777 -1.422,-0.7111 -1.955,-0.8888 -0.534,-0.3556 -1.422,-0.5334 -1.956,-0.8889 -1.422,-0.5334 -2.844,-1.0667 -4.266,-1.6 -0.712,-0.1778 -1.6,-0.5334 -2.312,-0.7111 -0.533,-0.1778 -1.6,-0.3556 -2.133,-0.5334 -0.533,-0.1778 -1.422,-0.1778 -2.133,-0.3555 -2.489,-0.3556 -4.8,-0.5334 -7.289,-0.5334 -5.867,0.1778 -11.733,1.4223 -17.067,3.7334 -11.378,4.8 -20.8,14.4 -25.244,26.1333 l -0.5336,1.2444 c -0.1777,0.3556 -0.5333,1.6 -0.7111,1.9556 -0.3555,1.0667 -0.7111,2.3111 -0.8889,3.3778 0,0.3555 -0.1777,1.0666 -0.3555,1.4222 -0.3556,1.9556 -0.7111,4.2667 -0.7111,6.2222 0,0.5334 0,1.6 0,2.1334 0,0 0,0.1777 0,0.5333 26.3112,0.1778 47.2892,22.2226 46.5782,48.5336 -0.712,26.133 -22.223,46.578 -47.8227,46.578 -6.9333,0.177 -13.8666,-1.245 -20.2666,-4.089 4.8,3.022 9.9555,5.511 15.2889,7.466 27.0224,9.778 56.8884,4.8 78.9334,-13.155 z m -12.8,-114.4892 c 3.022,1.7778 6.044,3.9111 8.533,6.4 11.022,10.6667 18.489,24.8889 20.978,40.1782 4.622,27.022 -6.756,54.933 -28.978,70.933 -12.444,9.067 -28.089,14.044 -43.555,13.511 18.489,-0.711 36.444,-8.356 49.244,-21.511 16.356,-16.178 23.822,-39.645 20.089,-62.4 -2.489,-15.6445 -10.311,-30.5778 -22.044,-41.2445 -12.089,-10.6667 -30.223,-13.1556 -44.8,-6.2222 12.444,-7.1111 28.266,-6.7556 40.533,0.3555 z m -2.311,19.3778 c 28.622,28.6224 23.466,77.1554 -10.667,99.2004 -4.444,2.844 -9.244,5.155 -14.4,6.933 -8,2.667 -16.533,3.733 -24.889,3.022 16.711,0.178 33.245,-6.222 45.156,-17.6 25.244,-23.644 26.844,-63.111 4.089,-88.7109 -0.534,-0.5334 -1.423,-1.6 -2.134,-2.3112 -10.844,-11.2 -28.8,-14.4 -42.489,-6.5777 14.045,-9.6 33.778,-6.2223 45.334,6.0444 z M 119.822,189.511 c 1.956,-0.711 4.267,-1.778 6.045,-2.844 0.355,-0.178 1.422,-0.711 1.778,-0.889 0.355,-0.178 1.422,-0.889 1.777,-1.067 0.711,-0.355 1.6,-1.066 2.311,-1.422 0.712,-0.533 1.6,-1.067 2.134,-1.6 22.933,-17.245 28.622,-49.6 13.155,-73.778 l -1.6,-2.133 -1.6,-2.134 -1.777,-2.133 c -1.778,-1.9554 -3.556,-3.9109 -5.689,-5.5109 -8.356,-6.5778 -20.089,-9.2445 -30.4,-5.6889 6.755,-3.0223 14.577,-3.2 21.689,-1.0667 6.4,1.9556 11.911,5.6889 16.177,10.4889 8.356,8.8886 13.511,20.4446 14.578,32.5336 3.556,35.555 -27.2,65.778 -62.7554,60.444 8.3554,0.889 16.5334,-0.355 24.1774,-3.2 z"
         fill="#000000"
         id="path2" /><path
         d="m 99.2001,96.8888 c -0.5333,0 -1.0667,-0.1777 -1.6,-0.1777 0,0 0,0 0,0.1777 1.2444,0 2.4889,0.1778 3.7329,0.3556 -0.711,-0.1778 -1.4218,-0.1778 -2.1329,-0.3556 z"
         fill="#000000"
         id="path3" /></g></g></svg>
