<svg xmlns="http://www.w3.org/2000/svg" width="128" height="128" fill="none" viewBox="0 0 128 128"><g filter="url(#filter0_i_1017_22)"><rect width="104" height="104" x="12" y="11" fill="#8C56BF" rx="24"/><rect width="104" height="104" x="12" y="11" fill="url(#paint0_linear_1017_22)" rx="24"/></g><rect width="1" height="104" x="28" y="12" fill="#F0F0F0" fill-opacity=".3"/><rect width="1" height="104" x="46" y="12" fill="#F0F0F0" fill-opacity=".1"/><rect width="1" height="104" x="64" y="12" fill="#F0F0F0" fill-opacity=".3"/><rect width="1" height="104" x="82" y="12" fill="#F0F0F0" fill-opacity=".1"/><rect width="1" height="104" x="100" y="12" fill="#F0F0F0" fill-opacity=".3"/><rect width="1" height="104" x="12.5" y="100.5" fill="#F0F0F0" fill-opacity=".3" transform="rotate(-90 12.5 100.5)"/><rect width="1" height="104" x="12.5" y="82.5" fill="#F0F0F0" fill-opacity=".1" transform="rotate(-90 12.5 82.5)"/><rect width="1" height="104" x="12.5" y="64.5" fill="#F0F0F0" fill-opacity=".3" transform="rotate(-90 12.5 64.5)"/><rect width="1" height="104" x="12.5" y="46.5" fill="#F0F0F0" fill-opacity=".1" transform="rotate(-90 12.5 46.5)"/><rect width="1" height="104" x="12.5" y="28.5" fill="#F0F0F0" fill-opacity=".3" transform="rotate(-90 12.5 28.5)"/><rect width="72" height="72" x="28.5" y="28.5" stroke="#F0F0F0" stroke-opacity=".1" rx="36"/><rect width="36" height="36" x="46.5" y="46.5" stroke="#F0F0F0" stroke-opacity=".1" rx="18"/><g clip-path="url(#clip0_1017_22)" opacity=".8"><path stroke="#F0F0F0" stroke-dasharray="8 8" stroke-linecap="round" stroke-linejoin="round" stroke-width="2" d="M33.1838 19.2813C33.0982 19.3723 32.994 19.4487 32.8735 19.5042C32.7665 19.5534 32.6637 19.6134 32.5669 19.6837C32.47 19.7539 32.3812 19.833 32.3011 19.9195C32.2111 20.0168 32.1061 20.0922 31.9931 20.1454C31.9969 20.2702 31.9772 20.3979 31.9312 20.5223C31.8904 20.6328 31.8601 20.7478 31.8413 20.866L33.1838 19.2813ZM33.1838 19.2813C33.3013 19.3237 33.4288 19.3446 33.5613 19.3394C33.679 19.3348 33.7978 19.3417 33.9159 19.3605C33.9159 19.3605 33.916 19.3605 33.916 19.3605L37.5268 19.9345C38.0722 20.0212 38.5847 19.6494 38.6714 19.1039L43.918 19.938C43.8313 20.4835 44.2032 20.9959 44.7486 21.0826L51.9704 22.2307C52.5159 22.3174 53.0283 21.9455 53.115 21.4001L58.3617 22.2342C58.2749 22.7796 58.6468 23.2921 59.1922 23.3788L66.4141 24.5269C66.9595 24.6136 67.4719 24.2417 67.5587 23.6963L72.8053 24.5304C72.7186 25.0758 73.0904 25.5882 73.6359 25.675L80.8577 26.823C81.4031 26.9097 81.9156 26.5379 82.0023 25.9924L87.2489 26.8265C87.1622 27.372 87.5341 27.8844 88.0795 27.9711L95.3013 29.1192C95.8467 29.2059 96.3592 28.834 96.4459 28.2886L101.693 29.1227C101.606 29.6681 101.978 30.1806 102.523 30.2673L106.134 30.8413C106.252 30.8601 106.367 30.8904 106.478 30.9312C106.602 30.9772 106.73 30.9969 106.855 30.9931C106.908 31.1061 106.983 31.2111 107.08 31.3012C107.167 31.3812 107.246 31.47 107.316 31.5669C107.387 31.6638 107.447 31.7665 107.496 31.8735C107.551 31.994 107.628 32.0982 107.719 32.1838C107.676 32.3013 107.655 32.4288 107.661 32.5613C107.665 32.6791 107.658 32.7978 107.639 32.9159L107.065 36.5268C106.979 37.0723 107.351 37.5847 107.896 37.6714L107.062 42.918C106.517 42.8313 106.004 43.2032 105.917 43.7486L104.769 50.9704C104.683 51.5159 105.054 52.0283 105.6 52.115L104.766 57.3617C104.22 57.275 103.708 57.6468 103.621 58.1923L102.473 65.4141C102.386 65.9595 102.758 66.472 103.304 66.5587L102.47 71.8053C101.924 71.7186 101.412 72.0904 101.325 72.6359L100.177 79.8577C100.09 80.4031 100.462 80.9156 101.008 81.0023L100.173 86.2489C99.628 86.1622 99.1156 86.5341 99.0289 87.0795L97.8808 94.3013C97.7941 94.8467 98.1659 95.3592 98.7114 95.4459L97.8773 100.693C97.3319 100.606 96.8194 100.978 96.7327 101.523L96.1587 105.134C96.1399 105.252 96.1096 105.367 96.0687 105.478C96.0227 105.602 96.0031 105.73 96.0069 105.855C95.8938 105.908 95.7889 105.983 95.6988 106.08C95.6188 106.167 95.5299 106.246 95.4331 106.316C95.3362 106.387 95.2335 106.447 95.1264 106.496C95.006 106.551 94.9018 106.628 94.8162 106.719C94.6987 106.676 94.5712 106.655 94.4386 106.661C94.3209 106.665 94.2021 106.658 94.0841 106.639L90.4732 106.065C89.9277 105.979 89.4153 106.351 89.3286 106.896L84.0819 106.062C84.1686 105.517 83.7968 105.004 83.2513 104.917L76.0295 103.769C75.4841 103.683 74.9716 104.054 74.8849 104.6L69.6383 103.766C69.725 103.22 69.3532 102.708 68.8077 102.621L61.5859 101.473C61.0405 101.386 60.528 101.758 60.4413 102.304L55.1947 101.47C55.2814 100.924 54.9095 100.412 54.3641 100.325L47.1423 99.1769C46.5968 99.0902 46.0844 99.4621 45.9977 100.008L40.7511 99.1735C40.8378 98.628 40.4659 98.1156 39.9205 98.0289L32.6987 96.8808C32.1532 96.7941 31.6408 97.1659 31.5541 97.7114L26.3074 96.8773C26.3942 96.3319 26.0223 95.8194 25.4768 95.7327L21.866 95.1587C21.7479 95.1399 21.6328 95.1096 21.5223 95.0687C21.3979 95.0228 21.2702 95.0031 21.1454 95.0069C21.0922 94.8938 21.0168 94.7889 20.9195 94.6988C20.833 94.6188 20.7539 94.5299 20.6836 94.4331C20.6134 94.3362 20.5534 94.2335 20.5041 94.1264C20.4487 94.006 20.3723 93.9018 20.2813 93.8162C20.3237 93.6987 20.3445 93.5712 20.3394 93.4387C20.3348 93.3209 20.3417 93.2022 20.3605 93.0841L20.9345 89.4732C21.0212 88.9277 20.6494 88.4153 20.1039 88.3286L20.938 83.0819C21.4834 83.1687 21.9959 82.7968 22.0826 82.2513L23.2307 75.0295C23.3174 74.4841 22.9455 73.9716 22.4001 73.8849L23.2342 68.6383C23.7796 68.725 24.2921 68.3532 24.3788 67.8077L25.5269 60.5859C25.6136 60.0405 25.2417 59.528 24.6963 59.4413L25.5303 54.1947C26.0758 54.2814 26.5882 53.9095 26.6749 53.3641L27.823 46.1423C27.9097 45.5969 27.5379 45.0844 26.9924 44.9977L27.8265 39.7511C28.3719 39.8378 28.8844 39.4659 28.9711 38.9205L30.1192 31.6987C30.2059 31.1532 29.834 30.6408 29.2886 30.5541L30.1227 25.3075M33.1838 19.2813L30.1227 25.3075M30.1227 25.3075C30.6681 25.3942 31.1806 25.0223 31.2673 24.4769M30.1227 25.3075L31.2673 24.4769M31.2673 24.4769L31.8413 20.866L31.2673 24.4769ZM36.1244 23.3821C35.579 23.2954 35.0665 23.6673 34.9798 24.2127L34.3174 28.3791C34.2307 28.9246 34.6026 29.437 35.148 29.5237L34.1373 35.8814C33.5919 35.7947 33.0794 36.1666 32.9927 36.712L31.668 45.0449C31.5813 45.5903 31.9532 46.1027 32.4986 46.1895L31.4879 52.5471C30.9425 52.4604 30.43 52.8323 30.3433 53.3777L29.0186 61.7106C28.9319 62.256 29.3037 62.7685 29.8492 62.8552L28.8385 69.2128C28.293 69.1261 27.7806 69.498 27.6939 70.0434L26.3692 78.3763C26.2825 78.9217 26.6543 79.4342 27.1998 79.5209L26.1891 85.8786C25.6436 85.7918 25.1312 86.1637 25.0445 86.7092L24.3821 90.8756C24.2954 91.421 24.6673 91.9335 25.2127 92.0202L29.3791 92.6825C29.9246 92.7692 30.437 92.3974 30.5237 91.8519L36.8814 92.8626C36.7947 93.4081 37.1666 93.9205 37.712 94.0073L46.0448 95.332C46.5903 95.4187 47.1027 95.0468 47.1894 94.5014L53.5471 95.5121C53.4604 96.0575 53.8323 96.57 54.3777 96.6567L62.7106 97.9814C63.256 98.0681 63.7685 97.6962 63.8552 97.1508L70.2128 98.1615C70.1261 98.7069 70.498 99.2194 71.0434 99.3061L79.3763 100.631C79.9217 100.718 80.4342 100.346 80.5209 99.8002L86.8785 100.811C86.7918 101.356 87.1637 101.869 87.7091 101.956L91.8756 102.618C92.421 102.705 92.9335 102.333 93.0202 101.787L93.6825 97.6208C93.7692 97.0754 93.3974 96.563 92.8519 96.4762L93.8626 90.1186C94.4081 90.2053 94.9205 89.8334 95.0072 89.288L96.332 80.9551C96.4187 80.4097 96.0468 79.8972 95.5014 79.8105L96.5121 73.4529C97.0575 73.5396 97.57 73.1677 97.6567 72.6223L98.9814 64.2894C99.0681 63.744 98.6962 63.2315 98.1508 63.1448L99.1615 56.7871C99.7069 56.8739 100.219 56.502 100.306 55.9565L101.631 47.6237C101.718 47.0783 101.346 46.5658 100.8 46.4791L101.811 40.1214C102.356 40.2081 102.869 39.8363 102.956 39.2908L103.618 35.1244C103.705 34.579 103.333 34.0665 102.787 33.9798L98.6208 33.3174C98.0754 33.2307 97.5629 33.6026 97.4762 34.148L91.1186 33.1373C91.2053 32.5919 90.8334 32.0794 90.288 31.9927L81.9551 30.668C81.4097 30.5813 80.8972 30.9532 80.8105 31.4986L74.4529 30.4879C74.5396 29.9425 74.1677 29.43 73.6223 29.3433L65.2894 28.0186C64.744 27.9319 64.2315 28.3038 64.1448 28.8492L57.7871 27.8385C57.8738 27.2931 57.502 26.7806 56.9565 26.6939L48.6237 25.3692C48.0782 25.2825 47.5658 25.6543 47.4791 26.1998L41.1214 25.1891C41.2081 24.6436 40.8363 24.1312 40.2908 24.0445L36.1244 23.3821Z"/><path stroke="#F0F0F0" stroke-dasharray="8 8" stroke-linecap="round" stroke-linejoin="round" stroke-width="2" d="M63.7518 34.874C61.9419 34.8894 60.1611 35.0804 58.4288 35.433C58.5471 35.9641 58.2181 36.4941 57.687 36.6221C55.3687 37.1811 53.149 38.0418 51.0803 39.1668C50.6003 39.4278 50.0009 39.255 49.7327 38.7814C48.193 39.6905 46.7416 40.7437 45.3999 41.9256C45.7669 42.3274 45.7453 42.9509 45.3483 43.3263C43.6373 44.9442 42.1307 46.7875 40.8803 48.8182C40.5939 49.2834 39.988 49.4317 39.5198 49.1546C38.6474 50.6921 37.9135 52.3259 37.3376 54.0418C37.8565 54.2055 38.1504 54.7556 37.9952 55.2794C37.6631 56.4004 37.3999 57.5556 37.2114 58.7413C37.0229 59.927 36.9148 61.1069 36.883 62.2755C36.8681 62.8216 36.4181 63.2535 35.874 63.2483C35.8894 65.0581 36.0805 66.839 36.433 68.5712C36.9642 68.453 37.4941 68.7819 37.6221 69.313C38.1811 71.6313 39.0418 73.851 40.1668 75.9197C40.4278 76.3997 40.255 76.9991 39.7815 77.2674C40.6905 78.8071 41.7437 80.2584 42.9256 81.6001C43.3274 81.2331 43.9509 81.2547 44.3263 81.6517C45.9442 83.3627 47.7875 84.8694 49.8182 86.1197C50.2834 86.4061 50.4318 87.012 50.1547 87.4802C51.6922 88.3526 53.3259 89.0865 55.0418 89.6624C55.2055 89.1435 55.7557 88.8496 56.2795 89.0048C57.4004 89.337 58.5556 89.6001 59.7413 89.7886C60.927 89.9771 62.1069 90.0852 63.2756 90.117C63.8217 90.1319 64.2536 90.5819 64.2483 91.126C66.0582 91.1106 67.839 90.9195 69.5712 90.567C69.453 90.0359 69.7819 89.5059 70.313 89.3779C72.6313 88.8189 74.851 87.9582 76.9197 86.8332C77.3997 86.5722 77.9992 86.745 78.2674 87.2186C79.8071 86.3095 81.2584 85.2563 82.6001 84.0744C82.2331 83.6726 82.2547 83.0491 82.6517 82.6737C84.3628 81.0558 85.8694 79.2125 87.1197 77.1818C87.4062 76.7166 88.012 76.5682 88.4803 76.8454C89.3526 75.3079 90.0865 73.6741 90.6625 71.9582C90.1435 71.7945 89.8496 71.2443 90.0049 70.7205C90.337 69.5996 90.6001 68.4444 90.7886 67.2587C90.9771 66.073 91.0852 64.8931 91.1171 63.7245C91.1319 63.1783 91.582 62.7464 92.1261 62.7517C92.1106 60.9419 91.9196 59.161 91.567 57.4288C91.0359 57.547 90.506 57.2181 90.3779 56.687C89.8189 54.3687 88.9582 52.149 87.8332 50.0803C87.5722 49.6003 87.745 49.0009 88.2186 48.7326C87.3095 47.1929 86.2563 45.7416 85.0745 44.3999C84.6726 44.7669 84.0491 44.7453 83.6737 44.3483C82.0559 42.6373 80.2126 41.1306 78.1819 39.8803C77.7167 39.5938 77.5683 38.988 77.8454 38.5198C76.3079 37.6474 74.6741 36.9135 72.9582 36.3376C72.7945 36.8565 72.2444 37.1504 71.7206 36.9952C70.5997 36.663 69.4444 36.3999 68.2587 36.2114C67.073 36.0229 65.8931 35.9148 64.7245 35.883C64.1784 35.8681 63.7465 35.4181 63.7518 34.874ZM63.0904 39.5102C62.5385 39.5304 62.1074 39.9941 62.1276 40.546C62.1278 40.5535 62.1282 40.5609 62.1286 40.5683C59.818 40.756 57.5874 41.2981 55.501 42.148C55.498 42.1412 55.495 42.1344 55.4919 42.1276C55.2609 41.6259 54.667 41.4064 54.1654 41.6373C51.3621 42.9276 48.8364 44.7604 46.7404 47.0254C46.3653 47.4307 46.3898 48.0634 46.7951 48.4385C46.8006 48.4436 46.8061 48.4486 46.8116 48.4535C45.3567 50.1735 44.1495 52.1261 43.2545 54.2645C43.2476 54.2618 43.2407 54.2592 43.2337 54.2566C42.7153 54.0663 42.1407 54.3323 41.9504 54.8508C41.4294 56.2702 41.0378 57.7607 40.7915 59.3104C40.5451 60.8601 40.4551 62.3986 40.5103 63.9096C40.5304 64.4615 40.9942 64.8926 41.5461 64.8724C41.5535 64.8722 41.5609 64.8718 41.5683 64.8714C41.756 67.182 42.2981 69.4126 43.148 71.4991C43.1412 71.502 43.1344 71.505 43.1277 71.5082C42.626 71.7391 42.4065 72.333 42.6374 72.8347C43.9276 75.6379 45.7605 78.1636 48.0254 80.2596C48.4307 80.6347 49.0634 80.6102 49.4386 80.2049C49.4436 80.1994 49.4486 80.1939 49.4535 80.1884C51.1735 81.6434 53.1261 82.8505 55.2646 83.7455C55.2619 83.7524 55.2592 83.7593 55.2567 83.7663C55.0664 84.2848 55.3324 84.8593 55.8508 85.0496C57.2702 85.5706 58.7607 85.9622 60.3105 86.2085C61.8602 86.4549 63.3987 86.5449 64.9096 86.4898C65.4615 86.4696 65.8926 86.0059 65.8725 85.4539C65.8722 85.4465 65.8718 85.4391 65.8714 85.4317C68.182 85.244 70.4127 84.7019 72.4991 83.852C72.502 83.8588 72.5051 83.8656 72.5082 83.8724C72.7391 84.3741 73.333 84.5936 73.8347 84.3626C76.638 83.0724 79.1637 81.2396 81.2597 78.9746C81.6348 78.5693 81.6103 77.9366 81.2049 77.5615C81.1994 77.5564 81.1939 77.5514 81.1884 77.5465C82.6434 75.8265 83.8505 73.8739 84.7455 71.7354C84.7524 71.7382 84.7593 71.7408 84.7663 71.7434C85.2848 71.9337 85.8594 71.6676 86.0497 71.1492C86.5707 69.7298 86.9622 68.2393 87.2086 66.6896C87.4549 65.1398 87.5449 63.6014 87.4898 62.0904C87.4696 61.5385 87.0059 61.1074 86.454 61.1275C86.4465 61.1278 86.4391 61.1282 86.4317 61.1286C86.244 58.818 85.7019 56.5873 84.8521 54.5009C84.8588 54.498 84.8656 54.4949 84.8724 54.4918C85.3741 54.2609 85.5936 53.667 85.3627 53.1653C84.0724 50.362 82.2396 47.8363 79.9746 45.7404C79.5693 45.3652 78.9366 45.3898 78.5615 45.7951C78.5564 45.8006 78.5515 45.8061 78.5465 45.8116C76.8265 44.3566 74.874 43.1495 72.7355 42.2545C72.7382 42.2476 72.7408 42.2407 72.7434 42.2337C72.9337 41.7152 72.6677 41.1407 72.1492 40.9503C70.7298 40.4293 69.2393 40.0378 67.6896 39.7914C66.1399 39.5451 64.6014 39.4551 63.0904 39.5102Z"/></g><defs><filter id="filter0_i_1017_22" width="104" height="104" x="12" y="11" color-interpolation-filters="sRGB" filterUnits="userSpaceOnUse"><feFlood flood-opacity="0" result="BackgroundImageFix"/><feBlend in="SourceGraphic" in2="BackgroundImageFix" mode="normal" result="shape"/><feColorMatrix in="SourceAlpha" result="hardAlpha" type="matrix" values="0 0 0 0 0 0 0 0 0 0 0 0 0 0 0 0 0 0 127 0"/><feOffset dy="-4"/><feComposite in2="hardAlpha" k2="-1" k3="1" operator="arithmetic"/><feColorMatrix type="matrix" values="0 0 0 0 0.0666667 0 0 0 0 0.0666667 0 0 0 0 0.0666667 0 0 0 0.2 0"/><feBlend in2="shape" mode="normal" result="effect1_innerShadow_1017_22"/></filter><linearGradient id="paint0_linear_1017_22" x1="64" x2="64" y1="11" y2="115" gradientUnits="userSpaceOnUse"><stop stop-color="#F0F0F0" stop-opacity="0"/><stop offset="1" stop-color="#2D2D2D" stop-opacity=".2"/><stop offset="1" stop-color="#F0F0F2" stop-opacity=".2"/><stop offset="1" stop-color="#F0F0F0" stop-opacity=".2"/></linearGradient><clipPath id="clip0_1017_22"><rect width="90" height="90" fill="#fff" transform="translate(26.6232 11.493) rotate(9.03297)"/></clipPath></defs></svg>