<svg xmlns="http://www.w3.org/2000/svg" xmlns:svg="http://www.w3.org/2000/svg" id="svg12" width="16" height="16" version="1.1" viewBox="0 0 16 16"><path style="color:#000;fill:#241f31;stroke-linecap:round;stroke-linejoin:round;-inkscape-stroke:none" id="rect3070" d="M 1.5,1 A 0.50005,0.50005 0 0 0 1,1.5 v 13 A 0.50005,0.50005 0 0 0 1.5,15 h 13 A 0.50005,0.50005 0 0 0 15,14.5 V 1.5 A 0.50005,0.50005 0 0 0 14.5,1 Z M 2,2 H 14 V 14 H 2 Z"/><path style="color:#000;fill:#241f31;stroke-linecap:round;stroke-linejoin:round;-inkscape-stroke:none" id="path3240" d="M 8,3 C 5.2445018,3 3,5.2445014 3,8 c 0,2.755499 2.2445018,5 5,5 2.755498,0 5,-2.244501 5,-5 C 13,5.2445014 10.755498,3 8,3 Z m 0,1 c 2.21506,0 4,1.7849398 4,4 0,2.21506 -1.78494,4 -4,4 C 5.7849404,12 4,10.21506 4,8 4,5.7849398 5.7849404,4 8,4 Z"/></svg>